<?xml version="1.0" ?><svg data-name="Layer 1" id="Layer_1" viewBox="0 0 64 64" xmlns="http://www.w3.org/2000/svg"><path d="M32.44,51.08a28.69,28.69,0,0,1-8.57-1.31,2.74,2.74,0,0,1-2.39-2.64h0a113.1,113.1,0,0,1-.67-23.84c0-.4,0-.94,0-1.51,0-2.41,0-5.41,1.78-6.57,2.22-1.45,6.65-1.07,9.88-.79.76.06,1.41.12,2,.14,1.26.06,5.08.24,6.32,3A6.93,6.93,0,0,1,41.23,20c.54,8.25.9,16.62,1.05,24.87,0,1.83-.13,3.68-1.55,4.75a5.15,5.15,0,0,1-2,.82A28.73,28.73,0,0,1,32.44,51.08ZM23,46.93a2.45,2.45,0,0,0,.18.72,2,2,0,0,0,1.15.65,27.19,27.19,0,0,0,14,.58,3.67,3.67,0,0,0,1.43-.54c.87-.66,1-2.06.94-3.49-.15-8.23-.51-16.57-1-24.79a5.79,5.79,0,0,0-.33-1.85c-.57-1.29-2.2-2-5-2.11-.57,0-1.27-.09-2-.15-2.84-.24-7.13-.61-8.9.55-1.08.71-1.09,3.46-1.09,5.29,0,.62,0,1.17,0,1.62A112.1,112.1,0,0,0,23,46.93Z" fill="#1b1c20"/><path d="M37.39,19.7c-1.37,0-2.73-.07-4.13-.15l-1.71-.09c-3.28-.14-5.82-.36-9-.76a.78.78,0,0,1-.67-.86.76.76,0,0,1,.86-.67c3.19.4,5.69.61,8.93.76l1.72.08a44.41,44.41,0,0,0,6.92,0,.77.77,0,1,1,.15,1.53C39.38,19.66,38.38,19.7,37.39,19.7Z" fill="#1b1c20"/><path d="M22.78,45h0a.78.78,0,0,1-.07-1.55l.19,0,.6,0,1.91-.14c.86,0,3-.18,4.15-.17,6.33.06,7.56,0,11.92-.21a.76.76,0,0,1,.81.72.77.77,0,0,1-.72.82c-4.41.25-5.65.28-12,.21-1.64,0-5.62.26-6.47.35A.75.75,0,0,1,22.78,45Z" fill="#1b1c20"/><path d="M32.15,49.21A2.49,2.49,0,0,1,30,48.11a1.93,1.93,0,0,1-.06-2h0a2.76,2.76,0,0,1,3.38-1,2,2,0,0,1,1.24,2.45,2.28,2.28,0,0,1-2,1.6A2.73,2.73,0,0,1,32.15,49.21Zm.07-2.75a1.06,1.06,0,0,0-.94.42h0s-.11.18,0,.45a1.06,1.06,0,0,0,1,.33.83.83,0,0,0,.72-.47.46.46,0,0,0-.33-.63A1.24,1.24,0,0,0,32.22,46.46Zm-1.61,0Z" fill="#1b1c20"/><path d="M29.37,38.05A2.82,2.82,0,0,1,29,38a.77.77,0,0,1,.14-1.53c1,.09,2.89-.37,3.4-1.2.13-.2.22-.49-.11-1a3.59,3.59,0,0,0-1.46-1.13L30.66,33a6.82,6.82,0,0,1-1.89-1.23,3.9,3.9,0,0,1-.66-4.46c1-1.86,3.26-2.31,4.91-2.12a.75.75,0,0,1,.68.85.77.77,0,0,1-.85.68c-1.22-.14-2.8.21-3.37,1.3a2.35,2.35,0,0,0,.39,2.67,5.51,5.51,0,0,0,1.48.93l.27.14a4.88,4.88,0,0,1,2.08,1.7,2.44,2.44,0,0,1,.1,2.65C33,37.44,30.84,38.05,29.37,38.05Z" fill="#1b1c20"/><path d="M30.3,27.05a.78.78,0,0,1-.71-.48,5,5,0,0,1-.36-2.13.77.77,0,0,1,1.54.08A3.29,3.29,0,0,0,31,26a.77.77,0,0,1-.43,1A.72.72,0,0,1,30.3,27.05Z" fill="#1b1c20"/><path d="M31.3,40.08a.76.76,0,0,1-.76-.66l-.34-2.31a.78.78,0,0,1,.65-.88.77.77,0,0,1,.87.65l.34,2.32a.77.77,0,0,1-.65.87Z" fill="#1b1c20"/><path d="M10.57,44.79a.78.78,0,0,1-.48-.17c-1.38-1.1-2-3.54-2-7.45,0-5.38,1.68-9.48,5-12.52A19.15,19.15,0,0,0,12,22.48a.76.76,0,0,1,.73-1.18,16.29,16.29,0,0,0,2.73-.09,15.66,15.66,0,0,1,3-.09.77.77,0,0,1,.68.8,23.81,23.81,0,0,1-.33,2.68,16.4,16.4,0,0,0-.34,3.59v0a.76.76,0,0,1-.7.83.79.79,0,0,1-.77-.44,10.13,10.13,0,0,0-1.5-1,13.5,13.5,0,0,0-1.67,4.75,10.25,10.25,0,0,0,.36,3.56,9.14,9.14,0,0,0,3.18,5.29.77.77,0,0,1,.33.57.79.79,0,0,1-.25.62c-1.63,1.53-6.3,2.3-6.83,2.38ZM14,22.86c.4.83.74,1.66.76,1.72a.75.75,0,0,1-.22.87c-3.27,2.77-4.88,6.61-4.91,11.73,0,3.71.6,5.33,1.21,6a20.73,20.73,0,0,0,4.89-1.42,11,11,0,0,1-3-5.48,12,12,0,0,1-.39-4.09,16.7,16.7,0,0,1,2.2-6,.79.79,0,0,1,.46-.38.76.76,0,0,1,.59.06c.58.32,1,.58,1.41.82.07-.76.2-1.56.33-2.33s.19-1.2.25-1.74c-.61,0-1.3.06-2,.12S14.52,22.84,14,22.86Zm3.13,5.79Z" fill="#1b1c20"/><path d="M44.9,43.58h-.13a.77.77,0,0,1-.74-.74c0-.81,0-1.86.13-3a21.31,21.31,0,0,0,.07-4.18v0a.77.77,0,0,1,1.47-.42,15.86,15.86,0,0,0,1.6,1.44A13.11,13.11,0,0,0,48.5,32a10.33,10.33,0,0,0-.64-3.52,9.11,9.11,0,0,0-3.59-5,.78.78,0,0,1-.38-.71.77.77,0,0,1,.47-.66l6.23-2.68a.73.73,0,0,1,.73.07c1.47,1,2.33,3.37,2.61,7.27.38,5.19-.84,9.32-3.75,12.57a10,10,0,0,1,2.24,1.76.76.76,0,0,1,.07.82.77.77,0,0,1-.71.42,16.2,16.2,0,0,0-3.3.6A17,17,0,0,1,44.9,43.58Zm1-6.1c0,.79-.09,1.65-.15,2.5s-.11,1.41-.13,2c.72-.1,1.64-.33,2.55-.55.63-.16,1.25-.31,1.83-.43-.48-.32-1-.63-1.37-.85a.76.76,0,0,1-.38-.57.78.78,0,0,1,.22-.65c3-3,4.35-7,4-12.07-.27-3.6-1-5.18-1.64-5.85l-4.55,2a11.24,11.24,0,0,1,3.11,5A11.88,11.88,0,0,1,50,32a16.79,16.79,0,0,1-1.72,6.18.79.79,0,0,1-.52.44.77.77,0,0,1-.67-.14C46.62,38.11,46.19,37.77,45.85,37.48Zm-.17-2.28Z" fill="#1b1c20"/></svg>