<?xml version="1.0" ?><svg height="1270mm" id="svg2" version="1.1" viewBox="0 0 4500 4500" width="1270mm" xmlns="http://www.w3.org/2000/svg" xmlns:cc="http://creativecommons.org/ns#" xmlns:dc="http://purl.org/dc/elements/1.1/" xmlns:inkscape="http://www.inkscape.org/namespaces/inkscape" xmlns:rdf="http://www.w3.org/1999/02/22-rdf-syntax-ns#" xmlns:sodipodi="http://sodipodi.sourceforge.net/DTD/sodipodi-0.dtd" xmlns:svg="http://www.w3.org/2000/svg"><defs id="defs4"/><g id="layer1" transform="translate(-3450.082,4128.5947)"><g id="g5396" transform="translate(-13585.456,-862.5402)"><path d="m 24059.074,1212.5 a 75.0075,75.0075 0 1 0 0,150 l 2362.5,0 a 75.0075,75.0075 0 1 0 0,-150 l -2362.5,0 z m 250,262.5 a 75.0075,75.0075 0 0 0 -75,75 l 0,700 a 75.0075,75.0075 0 0 0 3.78,23.5117 c 171.415,519.2198 514.703,962.8903 1176.339,1083.7598 362.639,124.9953 523.152,259.8666 617.7,532.9629 a 75.0075,75.0075 0 0 0 0.798,2.1953 c 59.857,156.9043 30.805,342.3596 38.883,542.1406 l 0,240.4297 -1712.5,0 0,-628.7344 c 4.306,-18.5844 26.818,-112.7395 67.203,-221.7793 44.864,-121.1328 118.651,-251.2321 173.354,-286.3984 169.23,-108.7908 313.289,-168.8574 313.289,-168.8574 a 75.0075,75.0075 0 1 0 -57.693,-138.461 c 0,0 -155.941,64.9334 -336.711,181.1426 -120.296,77.3337 -184.013,228.4844 -232.899,360.4766 -48.886,131.9921 -74.76,248.8418 -74.76,248.8418 a 75.0075,75.0075 0 0 0 -1.783,16.2695 l 0,712.5 a 75.0075,75.0075 0 0 0 75,75 l 1862.5,0 a 75.0075,75.0075 0 0 0 75,-75 l 0,-316.4707 a 75.0075,75.0075 0 0 0 -0.06,-3.127 c -7.429,-178.042 29.651,-383.8823 -47.869,-589.2402 l -0.102,-0.2793 c -108.52,-313.1776 -328.585,-494.6017 -715.385,-627.1777 a 75.0075,75.0075 0 0 0 -11.105,-2.8809 c -607.836,-108.7672 -900.416,-488.4468 -1062.975,-973.2461 l 0,-612.5781 1737.5,0 0,652.0254 c -5.726,20.0312 -24.789,83.7847 -58.324,164.5176 -40.275,96.958 -101.377,212.0921 -169.709,280.4238 -148.902,148.9018 -320.686,206.8828 -320.686,206.8828 a 75.0075,75.0075 0 1 0 47.436,142.3027 c 0,0 203.216,-67.0209 379.314,-243.1191 94.169,-94.1683 158.066,-222.7823 202.166,-328.9492 44.1,-106.1669 67.225,-192.086 67.225,-192.086 a 75.0075,75.0075 0 0 0 2.578,-19.498 l 0,-737.5 a 75.0075,75.0075 0 0 0 -75,-75 l -1887.5,0 0,0 z m 1614.69,244.293 a 75.0075,75.0075 0 0 0 -71.369,97.3359 c 56.336,190.079 29.301,406.3639 -72.09,576.7266 -68.315,114.7864 -169.866,210.6939 -288.366,272.3437 a 75.0075,75.0075 0 1 0 69.231,133.0684 c 143.694,-74.757 265.194,-189.5064 348.033,-328.6973 123.604,-207.6855 155.688,-464.3455 87.01,-696.0664 a 75.0075,75.0075 0 0 0 -72.449,-54.7109 z m -521.803,1741.7695 a 75.0075,75.0075 0 0 0 -34.248,141.7852 c 203.845,107.9462 363.835,301.1419 431.896,521.5351 42.089,136.2919 50.584,283.5184 24.448,423.7461 a 75.0075,75.0075 0 1 0 147.459,27.4863 c 30.654,-164.4613 20.778,-335.6472 -28.584,-495.4922 -80.189,-259.6648 -264.853,-482.6548 -505.022,-609.8359 a 75.0075,75.0075 0 0 0 -35.949,-9.2246 z M 24059.074,4950 a 75.0075,75.0075 0 1 0 0,150 l 2362.5,0 a 75.0075,75.0075 0 1 0 0,-150 l -2362.5,0 z" id="path4227" style="color:#000000;font-style:normal;font-variant:normal;font-weight:normal;font-stretch:normal;font-size:medium;line-height:normal;font-family:sans-serif;text-indent:0;text-align:start;text-decoration:none;text-decoration-line:none;text-decoration-style:solid;text-decoration-color:#000000;letter-spacing:normal;word-spacing:normal;text-transform:none;direction:ltr;block-progression:tb;writing-mode:lr-tb;baseline-shift:baseline;text-anchor:start;white-space:normal;clip-rule:nonzero;display:inline;overflow:visible;visibility:visible;opacity:1;isolation:auto;mix-blend-mode:normal;color-interpolation:sRGB;color-interpolation-filters:linearRGB;solid-color:#000000;solid-opacity:1;fill:#6c6da7;fill-opacity:1;fill-rule:evenodd;stroke:none;stroke-width:150;stroke-linecap:round;stroke-linejoin:round;stroke-miterlimit:4;stroke-dasharray:none;stroke-dashoffset:0;stroke-opacity:1;color-rendering:auto;image-rendering:auto;shape-rendering:auto;text-rendering:auto;enable-background:accumulate" transform="translate(-5954.7863,-4172.3044)"/><path d="m 25024.488,3234.3516 c -23.657,11.557 -47.375,22.9901 -71.154,34.2949 a 75.0075,75.0075 0 0 1 -40.414,100.584 c 0,0 -144.059,60.0666 -313.289,168.8574 -54.703,35.1663 -128.49,165.2656 -173.354,286.3984 -40.385,109.0398 -62.897,203.1949 -67.203,221.7793 l 0,628.7344 1712.5,0 0,-240.4297 c -8.078,-199.781 20.974,-385.2363 -38.883,-542.1406 a 75.0075,75.0075 0 0 1 -0.798,-2.1953 c -94.548,-273.0963 -255.061,-407.9676 -617.7,-532.9629 -144.597,-26.4155 -273.988,-68.25 -389.705,-122.9199 z m 377.473,226.7109 a 75.0075,75.0075 0 0 1 35.949,9.2246 c 240.169,127.1811 424.833,350.1711 505.022,609.8359 49.362,159.845 59.238,331.0309 28.584,495.4922 a 75.0075,75.0075 0 1 1 -147.459,-27.4863 c 26.136,-140.2277 17.641,-287.4542 -24.448,-423.7461 -68.061,-220.3932 -228.051,-413.5889 -431.896,-521.5351 a 75.0075,75.0075 0 0 1 34.248,-141.7852 z" id="path5382" style="fill:#f2a2bb;fill-opacity:1;fill-rule:evenodd;stroke:none;stroke-width:1px;stroke-linecap:butt;stroke-linejoin:miter;stroke-opacity:1" transform="translate(-5954.7863,-4172.3044)"/></g></g></svg>